<?xml version="1.0" encoding="UTF-8" standalone="no"?>
<!-- Created with Inkscape (http://www.inkscape.org/) -->
<svg xmlns:dc="http://purl.org/dc/elements/1.1/" xmlns:cc="http://creativecommons.org/ns#" xmlns:rdf="http://www.w3.org/1999/02/22-rdf-syntax-ns#" xmlns:svg="http://www.w3.org/2000/svg" xmlns="http://www.w3.org/2000/svg" xmlns:sodipodi="http://sodipodi.sourceforge.net/DTD/sodipodi-0.dtd" xmlns:inkscape="http://www.inkscape.org/namespaces/inkscape" width="724.5" height="280.39999" viewBox="0 0 191.69061 74.189162" version="1.1" id="svg6290" inkscape:version="0.92.0 r15299" sodipodi:docname="digibyte.svg">
  <defs id="defs6284"/>
  <sodipodi:namedview id="base" pagecolor="#ffffff" bordercolor="#666666" borderopacity="1.0" inkscape:pageopacity="0.0" inkscape:pageshadow="2" inkscape:zoom="1.1100346" inkscape:cx="361.25" inkscape:cy="139.2" inkscape:document-units="mm" inkscape:current-layer="layer1" showgrid="false" fit-margin-top="0" fit-margin-left="0" fit-margin-right="0" fit-margin-bottom="0" units="px" inkscape:window-width="1280" inkscape:window-height="744" inkscape:window-x="-4" inkscape:window-y="-4" inkscape:window-maximized="1"/>
  <metadata id="metadata6287">
    <rdf:RDF>
      <cc:Work rdf:about="">
        <dc:format>image/svg+xml</dc:format>
        <dc:type rdf:resource="http://purl.org/dc/dcmitype/StillImage"/>
        <dc:title/>
      </cc:Work>
    </rdf:RDF>
  </metadata>
  <g inkscape:label="Layer 1" inkscape:groupmode="layer" id="layer1" transform="translate(285.32478,-214.2837)">
    <g id="g6346" transform="matrix(0.26458333,0,0,0.26458333,-300.85582,204.78516)">
	<g id="g6336">
		<path id="path6294" d="m 755.3,263.6 h -555 v -52.4 h 581.9 l -19,47 c -1.3,3.4 -4.4,5.4 -7.9,5.4 z" class="st0" inkscape:connector-curvature="0" style="fill:#002352"/>

		<g id="g6316">
			<path id="path6296" d="m 466.9,254.9 13.3,-34.5 h 13.7 c 1.8,0 3.4,0.2 4.5,0.6 1.2,0.5 2,1.1 2.5,1.8 0.5,0.8 0.8,1.7 0.8,2.8 0,1.1 -0.3,2.2 -0.7,3.4 l -0.4,0.8 c -0.5,1.5 -1.5,2.8 -2.5,4 -1.1,1.2 -2.5,2.2 -4.1,2.8 1.3,0.6 2.1,1.6 2.4,3 0.3,1.4 0.1,3 -0.6,4.8 l -0.3,0.9 c -1.2,3 -3,5.4 -5.6,7 -2.6,1.6 -5.9,2.5 -10.1,2.5 z m 9.1,-5.5 h 6.2 c 1.5,0 2.9,-0.4 4,-1 1.1,-0.6 1.9,-1.7 2.5,-3.2 l 0.4,-0.8 c 1.2,-3 0.1,-4.5 -3.3,-4.5 h -6 z m 5.8,-15 h 6.1 c 1.3,0 2.5,-0.4 3.4,-0.9 1,-0.6 1.7,-1.5 2.2,-2.8 l 0.3,-0.6 c 1,-2.6 0,-3.9 -3,-3.9 H 485 Z" class="st1" inkscape:connector-curvature="0" style="fill:#ffffff"/>

			<path id="path6298" d="m 518.1,220.5 -11,28.5 h 14.8 l -3.2,6 h -21.3 l 13.3,-34.5 z" class="st1" inkscape:connector-curvature="0" style="fill:#ffffff"/>

			<path id="path6300" d="m 557,239.8 c -0.9,2.4 -2,4.4 -3.2,6.4 -1.2,2 -2.6,3.6 -4.3,5 -1.6,1.4 -3.5,2.5 -5.6,3.3 -2.2,0.8 -4.6,1.2 -7.4,1.2 -2.9,0 -5.1,-0.4 -6.6,-1.2 -1.5,-0.8 -2.5,-1.9 -3.1,-3.3 -0.5,-1.4 -0.6,-3.1 -0.3,-5 0.4,-2 1,-4.1 1.8,-6.4 l 1.5,-4.1 c 0.9,-2.4 2,-4.5 3.2,-6.4 1.2,-2 2.6,-3.6 4.3,-5 1.7,-1.4 3.4,-2.5 5.6,-3.3 2.1,-0.8 4.5,-1.2 7.4,-1.2 2.9,0 5.2,0.4 6.7,1.3 1.5,0.8 2.5,2 3.1,3.4 0.5,1.5 0.5,3.1 0.2,5 -0.3,1.9 -1,4.1 -1.8,6.3 z m -21.1,0.1 c -0.8,2.1 -1.3,3.7 -1.5,5 -0.2,1.3 -0.2,2.3 0.1,3 0.3,0.7 0.8,1.2 1.5,1.5 0.7,0.3 1.6,0.4 2.8,0.4 1.1,0 2.1,-0.1 3,-0.4 0.9,-0.3 1.8,-0.7 2.7,-1.5 0.8,-0.7 1.7,-1.7 2.5,-3 0.8,-1.3 1.5,-2.9 2.4,-5 l 1.6,-4.3 c 0.8,-2.1 1.3,-3.7 1.5,-5 0.2,-1.3 0.2,-2.3 -0.1,-3 -0.3,-0.7 -0.8,-1.2 -1.5,-1.5 -0.7,-0.3 -1.6,-0.4 -2.8,-0.4 -1.1,0 -2.1,0.1 -3,0.4 -0.9,0.3 -1.8,0.7 -2.7,1.5 -0.8,0.7 -1.7,1.7 -2.5,3 -0.8,1.3 -1.5,2.9 -2.4,5 z" class="st1" inkscape:connector-curvature="0" style="fill:#ffffff"/>

			<path id="path6302" d="m 571.2,255.4 c -2.8,0 -5,-0.4 -6.5,-1 -1.5,-0.6 -2.7,-1.6 -3.4,-2.9 -0.6,-1.3 -0.8,-2.9 -0.5,-4.9 0.3,-2 0.9,-4.3 2,-6.9 l 1.4,-3.5 c 0.9,-2.4 2,-4.4 3.2,-6.4 1.3,-2 2.7,-3.6 4.4,-5.2 1.7,-1.5 3.7,-2.6 6,-3.4 2.3,-0.8 4.8,-1.3 7.8,-1.3 1.6,0 3.1,0.1 4.4,0.4 1.3,0.3 2.4,0.5 3.1,0.8 l -3.4,5.6 c -0.6,-0.3 -1.5,-0.5 -2.4,-0.6 -0.9,-0.1 -2,-0.3 -3.2,-0.3 -1.5,0 -2.9,0.2 -4.1,0.5 -1.2,0.4 -2.3,0.8 -3.3,1.6 -1,0.8 -1.9,1.8 -2.7,3.2 -0.8,1.3 -1.6,3 -2.5,5 l -1.3,3.2 c -0.8,2.1 -1.3,3.7 -1.5,5 -0.3,1.3 -0.2,2.3 0.2,3 0.4,0.7 1.1,1.3 2.1,1.5 1,0.3 2.4,0.4 4.1,0.4 0.9,0 2,-0.1 3.3,-0.1 1.3,-0.1 2.5,-0.3 3.8,-0.5 l -3.4,5.8 c -1.4,0.3 -2.6,0.5 -4,0.6 -1.3,0.4 -2.6,0.4 -3.6,0.4 z" class="st1" inkscape:connector-curvature="0" style="fill:#ffffff"/>

			<path id="path6304" d="m 598.3,239.9 -5.8,15.1 h -7.1 l 13.3,-34.5 h 7 l -5.4,14.2 17.3,-14.2 h 8.2 l -20.3,16.4 7.8,18 h -8.9 z" class="st1" inkscape:connector-curvature="0" style="fill:#ffffff"/>

			<path id="path6306" d="m 628.8,255.4 c -2.8,0 -5,-0.4 -6.5,-1 -1.6,-0.6 -2.7,-1.6 -3.4,-2.9 -0.6,-1.3 -0.8,-2.9 -0.5,-4.9 0.3,-2 0.9,-4.3 2,-6.9 l 1.4,-3.5 c 0.9,-2.4 2,-4.4 3.2,-6.4 1.3,-2 2.7,-3.6 4.4,-5.2 1.7,-1.5 3.7,-2.6 6,-3.4 2.3,-0.8 4.8,-1.3 7.8,-1.3 1.6,0 3.1,0.1 4.4,0.4 1.3,0.3 2.4,0.5 3.1,0.8 l -3.4,5.6 c -0.6,-0.3 -1.5,-0.5 -2.4,-0.6 -0.9,-0.2 -2,-0.3 -3.2,-0.3 -1.5,0 -2.9,0.2 -4.1,0.5 -1.2,0.4 -2.3,0.8 -3.3,1.6 -1,0.8 -1.9,1.8 -2.7,3.2 -0.8,1.3 -1.6,3 -2.5,5 l -1.3,3.2 c -0.8,2.1 -1.3,3.7 -1.5,5 -0.2,1.3 -0.2,2.3 0.2,3 0.4,0.7 1.1,1.3 2.1,1.5 1,0.3 2.4,0.4 4.1,0.4 0.9,0 2,-0.1 3.3,-0.1 1.3,-0.1 2.5,-0.3 3.8,-0.5 l -3.4,5.8 c -1.4,0.3 -2.6,0.5 -4,0.6 -1.3,0.4 -2.5,0.4 -3.6,0.4 z" class="st1" inkscape:connector-curvature="0" style="fill:#ffffff"/>

			<path id="path6308" d="M 683.2,220.5 669.9,255 h -7.4 l 5.8,-15.1 H 656.1 L 650.3,255 H 643 l 13.3,-34.5 h 7.4 l -5.1,13.3 h 12.1 l 5.1,-13.3 z" class="st1" inkscape:connector-curvature="0" style="fill:#ffffff"/>

			<path id="path6310" d="m 698.6,246.4 h -11.2 l -5.9,8.5 h -7.2 l 24.8,-34.5 h 7.7 l -1.5,34.5 H 698 Z m -7.4,-5.7 h 8.1 l 1.1,-13.2 z" class="st1" inkscape:connector-curvature="0" style="fill:#ffffff"/>

			<path id="path6312" d="M 717.4,254.9 H 710 l 13.3,-34.5 h 7.4 z" class="st1" inkscape:connector-curvature="0" style="fill:#ffffff"/>

			<path id="path6314" d="m 744.3,220.5 4.7,22.8 8.8,-22.8 h 6.9 L 751.4,255 h -6.5 l -4.7,-22.8 -8.8,22.8 h -6.9 l 13.3,-34.5 z" class="st1" inkscape:connector-curvature="0" style="fill:#ffffff"/>

		</g>

		<g id="g6334">
			<path id="path6318" d="m 391.9,106.5 h 25.5 c 6.1,0 10.9,0.8 14.3,2.4 3.4,1.5 5.9,3.7 7.3,6.5 1.4,2.8 1.7,6.2 1.3,10.1 -0.5,3.9 -1.6,8.3 -3.4,13 l -2.3,5.8 c -1.8,4.7 -4,9 -6.5,13 -2.5,3.9 -5.5,7.4 -9.1,10.2 -3.6,2.8 -7.6,5.1 -12.3,6.6 -4.7,1.5 -10.1,2.4 -16.2,2.4 H 365 Z m -3.3,54.9 h 6.1 c 2.5,0 4.8,-0.4 6.9,-0.9 2.1,-0.6 4,-1.6 5.7,-3.1 1.7,-1.4 3.4,-3.3 4.8,-5.6 1.5,-2.4 2.8,-5.2 4.2,-8.5 l 1.5,-3.8 c 1.4,-3.6 2.3,-6.5 2.5,-8.9 0.4,-2.4 0.1,-4.2 -0.5,-5.5 -0.6,-1.4 -1.8,-2.4 -3.4,-2.8 -1.6,-0.5 -3.7,-0.8 -6.2,-0.8 h -6.1 z" class="st0" inkscape:connector-curvature="0" style="fill:#002352"/>

			<path id="path6320" d="m 453.4,125 h 17.9 l -19.9,51.4 h -17.9 z m 10.7,-4.6 c -3.7,0 -6,-0.8 -6.9,-2.5 -0.9,-1.6 -0.8,-3.7 0.2,-6.4 1.1,-2.7 2.6,-4.8 4.7,-6.4 2.1,-1.6 5.1,-2.5 8.8,-2.5 3.7,0 6,0.8 6.9,2.5 0.9,1.6 0.8,3.7 -0.3,6.4 -1,2.6 -2.5,4.7 -4.7,6.4 -2.1,1.8 -5,2.5 -8.7,2.5 z" class="st0" inkscape:connector-curvature="0" style="fill:#002352"/>

			<path id="path6322" d="m 495.9,171.4 c -1.7,1.2 -3.8,2.3 -6.2,3.2 -2.4,0.9 -5,1.5 -7.8,1.5 -6.4,0 -10.5,-1.9 -12.4,-5.7 -1.9,-3.8 -1.1,-10 2.2,-18.6 l 0.9,-2.5 c 1.7,-4.5 3.9,-8.5 6.4,-11.7 2.5,-3.3 5.4,-5.9 8.5,-7.9 3.2,-2 6.5,-3.5 10.2,-4.4 3.6,-0.9 7.5,-1.5 11.6,-1.5 4.9,0 9,0.5 12.2,1.5 3.2,1.1 6,2.4 8.3,4 l -16.3,42.3 c -1.8,4.6 -4.1,8.7 -6.7,12.3 -2.7,3.5 -5.7,6.4 -9,8.8 -3.3,2.4 -6.8,4.1 -10.5,5.3 -3.7,1.2 -7.5,1.7 -11.3,1.7 -4.1,0 -7.8,-0.3 -11.2,-0.7 -3.4,-0.4 -6.5,-1.4 -9.3,-2.7 l 7.8,-13.1 c 1.6,0.6 3.7,1.3 6.4,1.7 2.6,0.5 5.4,0.7 8.3,0.7 4.1,0 7.6,-1 10.5,-2.9 2.9,-1.9 5.3,-5.3 7.1,-9.9 z m -6.3,-19.3 c -1.5,4.1 -2.2,6.8 -1.7,8.3 0.5,1.5 1.8,2.3 4.1,2.3 2.4,0 4.4,-0.6 6.2,-2 1.7,-1.4 3.3,-3.8 4.6,-7.4 l 5.9,-15.2 c -1,-0.6 -2.7,-1 -5.1,-1 -2.3,0 -4.5,0.8 -6.7,2.5 -2.2,1.7 -4.1,4.4 -5.5,8.3 z" class="st0" inkscape:connector-curvature="0" style="fill:#002352"/>

			<path id="path6324" d="m 543.7,125 h 17.9 l -19.9,51.4 h -17.9 z m 10.7,-4.6 c -3.7,0 -6,-0.8 -6.9,-2.5 -0.9,-1.6 -0.8,-3.7 0.2,-6.4 1.1,-2.7 2.6,-4.8 4.7,-6.4 2.1,-1.6 5.1,-2.5 8.8,-2.5 3.7,0 6,0.8 6.9,2.5 0.9,1.6 0.8,3.7 -0.3,6.4 -1,2.6 -2.5,4.7 -4.7,6.4 -2.1,1.8 -5,2.5 -8.7,2.5 z" class="st0" inkscape:connector-curvature="0" style="fill:#002352"/>

			<path id="path6326" d="m 554.3,176.3 27,-69.8 h 29.1 c 3.8,0 6.9,0.5 9.4,1.3 2.5,0.9 4.3,2.2 5.4,3.8 1.1,1.6 1.7,3.5 1.8,5.8 0,2.2 -0.5,4.7 -1.5,7.4 l -0.5,1.4 c -1.1,2.9 -2.8,5.6 -4.9,8 -2.2,2.4 -4.7,4.3 -7.8,5.7 2.2,1.4 3.6,3.4 4.2,6.2 0.5,2.7 0.2,5.8 -1.1,9.3 l -0.5,1.4 c -2.4,6.2 -6.3,11 -11.7,14.5 -5.4,3.5 -12.6,5.3 -21.6,5.3 z m 21.9,-13.5 h 11 c 2.2,0 4.3,-0.5 6.2,-1.5 1.9,-1.1 3.4,-2.8 4.3,-5.2 l 0.5,-1.4 c 1.1,-2.7 1.1,-4.6 0.1,-5.8 -1,-1.2 -2.7,-1.7 -5.4,-1.7 h -10.6 z m 11.4,-29.3 h 10.6 c 2,0 3.9,-0.5 5.5,-1.5 1.6,-1 2.9,-2.5 3.7,-4.6 l 0.5,-1.1 c 0.9,-2.3 0.8,-3.9 -0.2,-4.8 -1,-0.9 -2.5,-1.5 -4.6,-1.5 h -10.2 z" class="st0" inkscape:connector-curvature="0" style="fill:#002352"/>

			<path id="path6328" d="m 688.1,125 -39.8,53 c -2.5,3.4 -4.9,6.4 -7.2,9 -2.4,2.7 -4.8,5 -7.4,6.9 -2.5,1.9 -5.3,3.4 -8.2,4.4 -2.9,1 -6.3,1.5 -10,1.5 -1.1,0 -2.2,-0.1 -3.4,-0.2 -1.3,-0.1 -2.5,-0.3 -3.7,-0.5 -1.2,-0.2 -2.3,-0.5 -3.2,-0.7 -0.9,-0.3 -1.6,-0.5 -2.2,-0.8 l 7.4,-13.3 c 1,0.3 2.1,0.5 3.4,0.6 1.3,0.2 2.5,0.3 3.9,0.3 1.9,0 3.8,-0.4 5.6,-1 1.9,-0.7 3.5,-2 4.9,-4 l 2.6,-3.7 -0.3,-51.5 h 20.2 l -2.9,32.1 20.4,-32.1 z" class="st0" inkscape:connector-curvature="0" style="fill:#002352"/>

			<path id="path6330" d="m 713,137.9 -7.1,18.2 c -2,5.3 -0.5,7.8 4.4,7.8 1.8,0 3.4,-0.1 4.6,-0.2 1.3,-0.1 2.4,-0.3 3.4,-0.4 l -6.7,12.3 c -0.6,0.2 -1.5,0.4 -2.4,0.5 -0.9,0.2 -1.9,0.4 -3,0.5 -1.1,0.1 -2.2,0.3 -3.4,0.4 -1.1,0.1 -2.2,0.1 -3.3,0.1 -3.7,0 -6.6,-0.5 -8.9,-1.3 -2.2,-0.9 -3.7,-2.2 -4.5,-4 -0.8,-1.8 -1.1,-4 -0.7,-6.6 0.4,-2.6 1.3,-5.7 2.6,-9.3 l 7.1,-18.2 H 686 l 6.9,-13 h 7.4 l 4.5,-11.9 18.6,-2.3 -5.4,14.1 h 14.8 l -6.9,13 z" class="st0" inkscape:connector-curvature="0" style="fill:#002352"/>

			<path id="path6332" d="m 744.5,156 c -0.5,1.6 -0.6,3 -0.5,4.1 0.1,1.1 0.5,2 1.3,2.7 0.8,0.7 1.9,1.2 3.4,1.5 1.5,0.3 3.4,0.5 5.9,0.5 2.5,0 5.1,-0.1 7.9,-0.4 2.8,-0.3 5.5,-0.6 8.4,-1.1 l -6.9,11.9 c -1.1,0.4 -2.5,0.6 -4,0.9 -1.5,0.3 -3.2,0.5 -4.9,0.8 -1.7,0.3 -3.4,0.4 -5.3,0.5 -1.8,0.1 -3.4,0.2 -5,0.2 -4.7,0 -8.4,-0.5 -11.3,-1.7 -2.8,-1.2 -4.7,-2.9 -5.8,-5.1 -1.1,-2.2 -1.5,-4.8 -1.2,-7.9 0.3,-3.1 1.2,-6.5 2.6,-10.3 l 0.7,-2 c 1.5,-3.7 3.2,-7.3 5.2,-10.5 2,-3.2 4.4,-6.1 7.3,-8.5 2.8,-2.4 6.1,-4.3 9.9,-5.7 3.8,-1.5 8.1,-2.1 12.9,-2.1 4.5,0 8.1,0.6 10.6,1.9 2.5,1.3 4.2,2.9 5.1,4.9 0.9,2 1.2,4.4 0.8,7 -0.4,2.6 -1.1,5.4 -2.2,8.2 l -1.5,4.1 c -1,2.5 -2.1,4.2 -3.4,5 -1.3,0.7 -3.3,1.1 -6,1.1 z m 15.4,-19.7 c -5.2,0 -9.1,3.1 -11.6,9.3 h 15.2 l 0.5,-1.5 c 2,-5.2 0.7,-7.8 -4.1,-7.8 z" class="st0" inkscape:connector-curvature="0" style="fill:#002352"/>

		</g>

	</g>

	<g id="g6342">
		<path id="path6338" d="M 198.9,36.9 C 122,36.9 59.7,99.3 59.7,176.1 c 0,76.8 62.4,139.2 139.2,139.2 76.8,0 139.3,-62.3 139.3,-139.2 0,-76.9 -62.4,-139.2 -139.3,-139.2 z" class="st2" inkscape:connector-curvature="0" style="fill:#0066cc"/>

		<circle id="circle6340" r="113.1" cy="176.10001" cx="198.89999" class="st0" style="fill:#002352"/>

	</g>

	<path id="path6344" d="m 233.7,119.4 4,-10.4 c 0.4,-1.1 -0.4,-2.2 -1.5,-2.2 h -14.9 l -4.7,12.3 H 210 l 3.8,-10.1 c 0.4,-1.1 -0.4,-2.2 -1.5,-2.2 h -14.9 l -4.7,12.3 H 146 c -2.1,0 -4.1,1.2 -5.2,3 l -11.6,20.5 h 16.2 70.9 c 2.9,0 5.7,0.5 8.4,1.6 5.2,2.1 11.3,6.9 9.7,17.7 -2.5,18.1 -21,50.1 -61,50.6 l 20.7,-53.8 c 0.8,-2.2 -0.8,-4.5 -3.2,-4.5 h -27.7 l -33.5,82.2 c 0,0 6.7,0.8 17.3,0.8 l -3.4,8.6 H 159 c 1.2,0 2.3,-0.7 2.7,-1.9 l 2.9,-7.4 c 2.3,-0.2 4.5,-0.5 6.9,-0.7 l -3.8,10 H 183 c 1.2,0 2.3,-0.7 2.7,-1.9 l 4.4,-11.3 c 25.1,-5.7 51.9,-18.2 68,-44.4 32.3,-52.8 -1.2,-66.4 -24.4,-68.8 z" class="st1" inkscape:connector-curvature="0" style="fill:#ffffff"/>

</g>
  </g>
  <style id="style6292" type="text/css">
	.st0{fill:#002352;}
	.st1{fill:#FFFFFF;}
	.st2{fill:#0066CC;}
</style>
</svg>